<mxfile host="app.diagrams.net" modified="2024-01-21T18:11:19.913Z" agent="Mozilla/5.0 (Windows NT 10.0; Win64; x64) AppleWebKit/537.36 (KHTML, like Gecko) Chrome/120.0.0.0 Safari/537.36 Edg/120.0.0.0" etag="YlYh5_dtYGPL_GERoR4x" version="22.1.21" type="device">
  <diagram id="R2lEEEUBdFMjLlhIrx00" name="Page-1">
    <mxGraphModel dx="1426" dy="785" grid="1" gridSize="10" guides="1" tooltips="1" connect="1" arrows="1" fold="1" page="1" pageScale="1" pageWidth="200" pageHeight="600" background="#FFFFFF" math="0" shadow="1" extFonts="Permanent Marker^https://fonts.googleapis.com/css?family=Permanent+Marker">
      <root>
        <mxCell id="0" />
        <mxCell id="1" parent="0" />
        <mxCell id="C0f8jpxXExH1aNlw5Bpp-14" style="edgeStyle=orthogonalEdgeStyle;rounded=0;orthogonalLoop=1;jettySize=auto;html=1;exitX=0.5;exitY=1;exitDx=0;exitDy=0;entryX=0.5;entryY=0;entryDx=0;entryDy=0;" edge="1" parent="1" source="C0f8jpxXExH1aNlw5Bpp-1" target="C0f8jpxXExH1aNlw5Bpp-7">
          <mxGeometry relative="1" as="geometry" />
        </mxCell>
        <mxCell id="C0f8jpxXExH1aNlw5Bpp-1" value="ConesSorter" style="rounded=1;whiteSpace=wrap;html=1;" vertex="1" parent="1">
          <mxGeometry x="30" y="80" width="120" height="60" as="geometry" />
        </mxCell>
        <mxCell id="C0f8jpxXExH1aNlw5Bpp-13" style="edgeStyle=orthogonalEdgeStyle;rounded=0;orthogonalLoop=1;jettySize=auto;html=1;exitX=0.5;exitY=1;exitDx=0;exitDy=0;entryX=0.5;entryY=0;entryDx=0;entryDy=0;" edge="1" parent="1" source="C0f8jpxXExH1aNlw5Bpp-3" target="C0f8jpxXExH1aNlw5Bpp-1">
          <mxGeometry relative="1" as="geometry" />
        </mxCell>
        <mxCell id="C0f8jpxXExH1aNlw5Bpp-3" value="unsorted list of cones" style="shape=hexagon;perimeter=hexagonPerimeter2;whiteSpace=wrap;html=1;fixedSize=1;" vertex="1" parent="1">
          <mxGeometry x="10" y="10" width="160" height="30" as="geometry" />
        </mxCell>
        <mxCell id="C0f8jpxXExH1aNlw5Bpp-15" style="edgeStyle=orthogonalEdgeStyle;rounded=0;orthogonalLoop=1;jettySize=auto;html=1;exitX=0.5;exitY=1;exitDx=0;exitDy=0;entryX=0.5;entryY=0;entryDx=0;entryDy=0;" edge="1" parent="1" source="C0f8jpxXExH1aNlw5Bpp-7" target="C0f8jpxXExH1aNlw5Bpp-9">
          <mxGeometry relative="1" as="geometry" />
        </mxCell>
        <mxCell id="C0f8jpxXExH1aNlw5Bpp-7" value="sorted list of cones" style="shape=hexagon;perimeter=hexagonPerimeter2;whiteSpace=wrap;html=1;fixedSize=1;" vertex="1" parent="1">
          <mxGeometry x="10" y="180" width="160" height="30" as="geometry" />
        </mxCell>
        <mxCell id="C0f8jpxXExH1aNlw5Bpp-16" style="edgeStyle=orthogonalEdgeStyle;rounded=0;orthogonalLoop=1;jettySize=auto;html=1;exitX=0.5;exitY=1;exitDx=0;exitDy=0;entryX=0.5;entryY=0;entryDx=0;entryDy=0;" edge="1" parent="1" source="C0f8jpxXExH1aNlw5Bpp-9" target="C0f8jpxXExH1aNlw5Bpp-11">
          <mxGeometry relative="1" as="geometry" />
        </mxCell>
        <mxCell id="C0f8jpxXExH1aNlw5Bpp-9" value="PathPlanner" style="rounded=1;whiteSpace=wrap;html=1;" vertex="1" parent="1">
          <mxGeometry x="30" y="250" width="120" height="60" as="geometry" />
        </mxCell>
        <mxCell id="C0f8jpxXExH1aNlw5Bpp-18" style="edgeStyle=orthogonalEdgeStyle;rounded=0;orthogonalLoop=1;jettySize=auto;html=1;exitX=0.5;exitY=1;exitDx=0;exitDy=0;entryX=0.5;entryY=0;entryDx=0;entryDy=0;" edge="1" parent="1" source="C0f8jpxXExH1aNlw5Bpp-11" target="C0f8jpxXExH1aNlw5Bpp-17">
          <mxGeometry relative="1" as="geometry" />
        </mxCell>
        <mxCell id="C0f8jpxXExH1aNlw5Bpp-11" value="basic path in middle of track" style="shape=hexagon;perimeter=hexagonPerimeter2;whiteSpace=wrap;html=1;fixedSize=1;" vertex="1" parent="1">
          <mxGeometry x="10" y="350" width="160" height="30" as="geometry" />
        </mxCell>
        <mxCell id="C0f8jpxXExH1aNlw5Bpp-20" style="edgeStyle=orthogonalEdgeStyle;rounded=0;orthogonalLoop=1;jettySize=auto;html=1;exitX=0.5;exitY=1;exitDx=0;exitDy=0;entryX=0.5;entryY=0;entryDx=0;entryDy=0;" edge="1" parent="1" source="C0f8jpxXExH1aNlw5Bpp-17" target="C0f8jpxXExH1aNlw5Bpp-19">
          <mxGeometry relative="1" as="geometry" />
        </mxCell>
        <mxCell id="C0f8jpxXExH1aNlw5Bpp-17" value="PathOptimizer" style="rounded=1;whiteSpace=wrap;html=1;" vertex="1" parent="1">
          <mxGeometry x="30" y="420" width="120" height="60" as="geometry" />
        </mxCell>
        <mxCell id="C0f8jpxXExH1aNlw5Bpp-19" value="optimized path" style="shape=hexagon;perimeter=hexagonPerimeter2;whiteSpace=wrap;html=1;fixedSize=1;" vertex="1" parent="1">
          <mxGeometry x="10" y="520" width="160" height="30" as="geometry" />
        </mxCell>
      </root>
    </mxGraphModel>
  </diagram>
</mxfile>
